HIERARCHY
ROOT root
{
OFFSET 0 0 0
CHANNELS 6 Xposition Yposition Zposition Zrotation Yrotation Xrotation
JOINT LeftUpLeg
{
OFFSET 11.3458 0 0
CHANNELS 3 Zrotation Yrotation Xrotation
JOINT LeftLeg
{
OFFSET 0.00037167 -41.5903 -2.53478
CHANNELS 3 Zrotation Yrotation Xrotation
JOINT LeftFoot
{
OFFSET 0.000211091 -44.3828 2.85594
CHANNELS 3 Zrotation Yrotation Xrotation
JOINT LeftToes
{
OFFSET 0 0 16.4975
CHANNELS 3 Zrotation Yrotation Xrotation
End Site
{
OFFSET 0.0799999 -0.047448 9.77978
}
}
}
}
}
JOINT Spine
{
OFFSET 1.82187 23.9065 -8.41027
CHANNELS 3 Zrotation Yrotation Xrotation
JOINT Spine1
{
OFFSET 0 24.995 0.000605945
CHANNELS 3 Zrotation Yrotation Xrotation
JOINT RightShoulder
{
OFFSET -8.98999 1.33453 -0.219958
CHANNELS 3 Zrotation Yrotation Xrotation
JOINT RightArm
{
OFFSET -10.5221 1.15288 0.21561
CHANNELS 3 Zrotation Yrotation Xrotation
JOINT RightForeArm
{
OFFSET -25.1789 -0.412611 -0.112648
CHANNELS 3 Zrotation Yrotation Xrotation
JOINT RightHand
{
OFFSET -23.0777 0.07562 -0.0136592
CHANNELS 3 Zrotation Yrotation Xrotation
End Site
{
OFFSET -13.3284 -0.6 1.50291
}
}
}
}
}
JOINT LeftShoulder1
{
OFFSET 8.98999 1.33453 -0.219959
CHANNELS 3 Zrotation Yrotation Xrotation
JOINT LeftArm
{
OFFSET 10.522 1.15329 0.220044
CHANNELS 3 Zrotation Yrotation Xrotation
JOINT LeftForeArm
{
OFFSET 25.1788 -0.414099 -0.112978
CHANNELS 3 Zrotation Yrotation Xrotation
JOINT LeftHand
{
OFFSET 23.0777 0.0751808 -0.0137337
CHANNELS 3 Zrotation Yrotation Xrotation
End Site
{
OFFSET 13.419 -0.6 1.50292
}
}
}
}
}
JOINT HEad
{
OFFSET -0.0706832 19.3422 -6.30919
CHANNELS 3 Zrotation Yrotation Xrotation
End Site
{
OFFSET -0.29 12.7742 2.51394
}
}
}
}
JOINT RightUpLeg
{
OFFSET -11.3458 0 0
CHANNELS 3 Zrotation Yrotation Xrotation
JOINT RightLeg
{
OFFSET -0.000218165 -41.5901 -2.53712
CHANNELS 3 Zrotation Yrotation Xrotation
JOINT RightFoot
{
OFFSET 0.101694 -44.3826 2.85855
CHANNELS 3 Zrotation Yrotation Xrotation
JOINT RightToes
{
OFFSET 0.0347039 1.3914e-005 16.4975
CHANNELS 3 Zrotation Yrotation Xrotation
End Site
{
OFFSET -0.0799999 -0.137448 9.77979
}
}
}
}
}
}
MOTION
Frames: 15
Frame Time: 0.033333
-146.39 85.946 -17.3298 0 90 2.04341 3.95464 7.6411 -2.73143 -0.494422 -2.19701 16.5364 -0.0639725 0.00199337 -3.24506 1.07989e-007 1.41006e-006 -17.4743 -0.410422 -1.93625 3.89059 -1.25994 -3.82442 7.48601 -0.0068039 8.23569e-005 0.217195 89.473 -5.32458 -62.8206 48.4658 59.6897 -2.19279 25.7209 11.5941 12.5542 -4.95415e-022 -2.42657e-020 0 -86.3656 -8.88983 -58.4788 -6.70585 -12.5693 68.3674 -5.64239 -7.66047 10.2716 9.71031 0.483641 6.00659 -3.87774 -10.8025 -2.46755 -1.69023 -6.98188 16.2903 -0.305889 -0.156986 -1.46671 -0.209887 0.511169 -32.8941 
-146.39 85.95 -17.3298 0 90 2.04341 3.95855 7.57793 -2.72468 -0.487259 -2.14016 16.5286 -0.0639725 0.00199337 -3.23382 1.07989e-007 1.41006e-006 -17.5099 -0.400379 -1.94682 3.87847 -1.24849 -3.80413 7.46148 -0.0068039 8.23569e-005 0.217195 89.3745 -5.34527 -62.7663 48.4218 59.6725 -2.33792 25.7775 11.7305 12.5918 -4.95415e-022 -2.42657e-020 0 -86.4317 -8.9442 -58.4518 -6.69643 -12.5317 68.1961 -5.56002 -7.59487 10.271 9.50996 0.646155 6.12191 -3.87841 -10.7918 -2.46744 -1.69157 -6.99241 16.2771 -0.305889 -0.156986 -1.46613 -0.209887 0.511169 -32.7984 
-146.39 85.9554 -17.3298 0 90 2.04341 3.96024 7.55049 -2.71485 -0.484324 -2.11684 16.5148 -0.0639726 0.00199337 -3.21512 1.07988e-007 1.41006e-006 -17.4824 -0.392836 -1.95168 3.86732 -1.23858 -3.79579 7.44013 -0.0068039 8.23569e-005 0.217195 89.3078 -5.31666 -62.8377 48.3626 59.649 -2.46261 25.9174 11.266 12.4989 -4.95415e-022 -2.42657e-020 0 -86.4527 -8.94194 -58.4301 -6.7004 -12.5472 68.2277 -5.53423 -7.65708 10.2729 9.50932 0.688419 6.22504 -3.88065 -10.7564 -2.46701 -1.69615 -7.02816 16.2596 -0.305889 -0.156987 -1.45251 -0.209886 0.511168 -32.8093 
-146.39 85.9592 -17.3298 0 90 2.04341 3.95834 7.58124 -2.71262 -0.488623 -2.15099 16.5192 -0.0639725 0.00199337 -3.20478 1.07989e-007 1.41006e-006 -17.5063 -0.378054 -1.93617 3.85269 -1.22072 -3.78653 7.41085 -0.0068039 8.23569e-005 0.217195 89.2975 -5.29748 -62.8974 48.3898 59.6599 -2.45103 25.9746 11.22 12.494 -4.95415e-022 -2.42657e-020 0 -86.4599 -8.95079 -58.3708 -6.7018 -12.5533 68.1758 -5.56661 -7.64687 10.2722 9.56423 0.703522 6.31781 -3.88356 -10.7101 -2.46647 -1.70275 -7.07977 16.2692 -0.305889 -0.156986 -1.46576 -0.209886 0.511169 -32.7691 
-146.39 85.9615 -17.3298 0 90 2.04341 3.95351 7.65926 -2.7141 -0.498331 -2.22804 16.5103 -0.0639726 0.00199337 -3.21241 1.0799e-007 1.41006e-006 -17.4328 -0.367601 -1.93426 3.84101 -1.21036 -3.78308 7.38729 -0.0068039 8.23569e-005 0.217195 89.2895 -5.25205 -62.9144 48.38 59.6562 -2.48607 25.9134 11.4061 12.531 -4.95415e-022 -2.42657e-020 0 -86.4426 -8.94345 -58.3396 -6.70429 -12.5612 68.1376 -5.57871 -7.66282 10.2725 9.60112 0.673585 6.37901 -3.88249 -10.7272 -2.46667 -1.69975 -7.05635 16.2616 -0.30589 -0.156986 -1.45748 -0.209887 0.511168 -32.8037 
-146.39 85.9631 -17.3298 0 90 2.04341 3.95574 7.62316 -2.71904 -0.493138 -2.18681 16.4951 -0.0639725 0.00199337 -3.20468 1.0799e-007 1.41006e-006 -17.3919 -0.358152 -1.91477 3.82639 -1.19169 -3.78255 7.3574 -0.0068039 8.23569e-005 0.217195 89.2445 -5.2498 -62.8474 48.3483 59.6436 -2.57391 25.882 11.4862 12.5463 -4.95415e-022 -2.42657e-020 0 -86.4242 -8.9363 -58.287 -6.70505 -12.5622 68.137 -5.52755 -7.64078 10.2726 9.65241 0.598904 6.44539 -3.88146 -10.7436 -2.46687 -1.69773 -7.04054 16.2601 -0.30589 -0.156986 -1.46657 -0.209886 0.511169 -32.7419 
-146.39 85.9647 -17.3298 0 90 2.04341 3.95746 7.59541 -2.72582 -0.490114 -2.16282 16.4895 -0.0639725 0.00199336 -3.19101 1.07989e-007 1.41006e-006 -17.4311 -0.34826 -1.9051 3.81495 -1.176 -3.78325 7.33422 -0.0068039 8.23569e-005 0.217195 89.2163 -5.21915 -62.8458 48.318 59.6313 -2.59591 25.8786 11.403 12.5267 -4.95415e-022 -2.42657e-020 0 -86.3868 -8.92957 -58.2463 -6.70611 -12.5638 68.0615 -5.53853 -7.61124 10.2717 9.69617 0.634401 6.4485 -3.88174 -10.7391 -2.46681 -1.6992 -7.05204 16.2523 -0.30589 -0.156986 -1.46078 -0.209887 0.511169 -32.7972 
-146.391 85.9671 -17.3298 0 90 2.05165 3.95469 7.56171 -2.7288 -0.485747 -2.12815 16.4805 -0.0639725 0.00199337 -3.18827 1.07987e-007 1.41006e-006 -17.3972 -0.334907 -1.90483 3.79976 -1.15388 -3.7846 7.30386 -0.0068039 8.23569e-005 0.217195 89.1685 -5.22178 -62.8229 48.3208 59.6325 -2.60109 25.8717 11.3554 12.5151 -4.95415e-022 -2.42657e-020 0 -86.3462 -8.90009 -58.225 -6.70722 -12.5659 68.0678 -5.47143 -7.59572 10.2722 9.73603 0.648548 6.41398 -3.87992 -10.7571 -2.46703 -1.69688 -7.03386 16.2336 -0.305889 -0.156986 -1.45376 -0.209886 0.511169 -32.7813 
-146.4 85.9711 -17.3298 166.167 89.9146 168.224 3.9331 7.46481 -2.74081 -0.483499 -2.11032 16.4625 -0.0639725 0.00199337 -3.174 1.07989e-007 1.41006e-006 -17.4125 -0.344678 -1.97181 3.79919 -1.14034 -3.78597 7.3018 -0.0068039 8.23569e-005 0.217195 89.1334 -5.21643 -62.7915 48.3315 59.6368 -2.6077 25.8657 11.3989 12.5215 -4.95415e-022 -2.42657e-020 0 -86.2898 -8.90655 -58.2075 -6.70844 -12.5682 68.0098 -5.59698 -7.60637 10.2707 9.79074 0.632679 6.33153 -3.89553 -10.831 -2.4678 -1.69789 -7.04176 16.2172 -0.30589 -0.156986 -1.44622 -0.209887 0.511169 -32.8013 
-146.402 85.9747 -17.3298 165.791 89.9059 167.852 3.92876 7.43325 -2.75312 -0.481451 -2.09405 16.4737 -0.0639726 0.00199337 -3.1435 1.07989e-007 1.41006e-006 -17.5431 -0.338386 -1.97025 3.79799 -1.1276 -3.78675 7.29924 -0.0068039 8.23569e-005 0.217195 89.087 -5.22932 -62.7641 48.3362 59.639 -2.64363 25.8654 11.4204 12.5293 -4.95415e-022 -2.42657e-020 0 -86.2772 -8.89925 -58.1837 -6.70953 -12.5706 68.0024 -5.58371 -7.62527 10.2714 9.78089 0.604999 6.26767 -3.89414 -10.8226 -2.47704 -1.70035 -7.06111 16.2298 -0.305889 -0.156986 -1.4523 -0.209887 0.511169 -32.7671 
-146.412 85.9775 -17.3298 166.051 89.8947 168.124 3.92822 7.46575 -2.74676 -0.485441 -2.12573 16.4201 -0.0639725 0.00199337 -3.12557 1.07988e-007 1.41006e-006 -17.405 -0.333429 -1.97261 3.7875 -1.11645 -3.78659 7.27948 -0.0068039 8.23569e-005 0.217195 89.0379 -5.20603 -62.7584 48.2594 59.6077 -2.65185 25.8463 11.4277 12.5334 -4.95415e-022 -2.42657e-020 0 -86.2065 -8.86201 -58.1367 -6.71059 -12.5727 67.9638 -5.55907 -7.55435 10.2699 9.88393 0.626324 6.2269 -3.89412 -10.8256 -2.48133 -1.6989 -7.07002 16.2034 -0.305889 -0.156986 -1.42707 -0.209887 0.511169 -32.7713 
-146.412 85.9789 -17.3298 164.552 89.887 166.639 3.92361 7.48957 -2.75169 -0.489465 -2.15766 16.3952 -0.0639726 0.00199336 -3.11822 1.07988e-007 1.41006e-006 -17.4269 -0.325677 -1.96628 3.77453 -1.09956 -3.77457 7.25458 -0.0068039 8.23569e-005 0.217195 88.9767 -5.25115 -62.7122 48.2892 59.6199 -2.67589 25.8007 11.4799 12.5401 -4.95415e-022 -2.42657e-020 0 -86.1688 -8.83057 -58.1209 -6.71138 -12.5745 68.0096 -5.51196 -7.56044 10.2707 9.86558 0.585366 6.25317 -3.89148 -10.8865 -2.47637 -1.68152 -7.01393 16.1641 -0.30589 -0.156986 -1.41268 -0.209886 0.511168 -32.8088 
-146.412 85.9795 -17.3298 163.583 89.8726 165.681 3.91584 7.46769 -2.76445 -0.488537 -2.15029 16.3938 -0.0639726 0.00199337 -3.1121 1.0799e-007 1.41006e-006 -17.3871 -0.314229 -1.96197 3.77185 -1.07759 -3.76611 7.24735 -0.0068039 8.23569e-005 0.217195 88.9241 -5.22988 -62.7789 48.3037 59.6256 -2.60297 25.8644 11.4479 12.5355 -4.95415e-022 -2.42657e-020 0 -86.1415 -8.80475 -58.1301 -6.71197 -12.5756 67.896 -5.54019 -7.56635 10.2705 9.7878 0.558016 6.26002 -3.89512 -10.8549 -2.48173 -1.69136 -7.06177 16.1591 -0.30589 -0.156986 -1.41191 -0.209886 0.511168 -32.778 
-146.412 85.9797 -17.3298 159.81 89.8764 161.911 3.90458 7.4335 -2.77926 -0.483828 -2.11292 16.4226 -0.0639726 0.00199337 -3.11991 1.0799e-007 1.41006e-006 -17.4153 -0.301057 -1.95571 3.77378 -1.05349 -3.75337 7.24846 -0.0068039 8.23569e-005 0.217195 88.8094 -5.21923 -62.7187 48.3014 59.6249 -2.64944 25.8425 11.4795 12.5413 -4.95415e-022 -2.42657e-020 0 -86.1508 -8.78868 -58.1308 -6.71207 -12.5759 67.8833 -5.62522 -7.57662 10.2696 9.75242 0.578549 6.15917 -3.89961 -10.8079 -2.48871 -1.70212 -7.10327 16.172 -0.30589 -0.156986 -1.41996 -0.209886 0.511168 -32.796 
-146.413 85.9799 -17.3298 159.641 89.8638 161.744 3.90288 7.42691 -2.79223 -0.48559 -2.12691 16.441 -0.0639725 0.00199337 -3.14169 1.07989e-007 1.41006e-006 -17.3393 -0.289589 -1.95397 3.77767 -1.03197 -3.75002 7.25768 -0.0068039 8.23569e-005 0.217195 88.7372 -5.207 -62.6684 48.341 59.6411 -2.68354 25.7865 11.5321 12.552 -4.95415e-022 -2.42657e-020 0 -86.1733 -8.78518 -58.091 -6.71149 -12.5737 67.9698 -5.61534 -7.58463 10.2699 9.74572 0.585565 6.15806 -3.90155 -10.7899 -2.50285 -1.71119 -7.13099 16.1949 -0.305889 -0.156986 -1.44163 -0.209887 0.511169 -32.7789 
